<svg width="640" height="512" viewBox="0 0 640 512" fill="none" xmlns="http://www.w3.org/2000/svg">
<g clip-path="url(#clip0_313_4)">
<path d="M483.2 9.59995L524 64H616C629.3 64 640 74.7 640 88C640 101.3 629.3 112 616 112H512C504.4 112 497.3 108.4 492.8 102.4L468.7 70.3L421.7 170.2C418 178 410.4 183.3 401.8 183.9C393.2 184.5 384.9 180.5 380.1 173.3L339.2 112H216C202.7 112 192 101.3 192 88C192 74.7 202.7 64 216 64H352C360 64 367.5 68 372 74.7L396.4 111.3L442.3 13.8C445.9 6.19995 453.2 0.999952 461.6 0.099952C470 -0.800048 478.2 2.79995 483.2 9.59995V9.59995ZM320 160H332.7L353.4 191.1C364.6 207.9 384 217.4 404.1 215.9C424.2 214.4 442 202.2 450.6 183.9L461.9 160H544C597 160 640 203 640 256V480C640 497.7 625.7 512 608 512C590.3 512 576 497.7 576 480V448H352H320H64V480C64 497.7 49.7 512 32 512C14.3 512 0 497.7 0 480V96C0 78.3 14.3 64 32 64C49.7 64 64 78.3 64 96V352H288V192C288 174.3 302.3 160 320 160ZM176 320C131.8 320 96 284.2 96 240C96 195.8 131.8 160 176 160C220.2 160 256 195.8 256 240C256 284.2 220.2 320 176 320Z" fill="white"/>
</g>
<defs>
<clipPath id="clip0_313_4">
<rect width="640" height="512" fill="white"/>
</clipPath>
</defs>
</svg>
